# xmcd CD database file
#
# Track frame offsets:
#	150
#	19703
#	42485
#	74370
#	98914
#	123246
#	152087
#	196645
#	228461
#	255351
#
# Disc length: 3653 seconds
#
# Revision: 0
# Processed by: cddbd v1.5.1PL0 Copyright (c) Steve Scherf et al.
# Submitted via: CDex 1.51
#
DISCID=790e430a
DTITLE=kris keith and minan-dya - latin jazz project
DYEAR=2000
DGENRE=Jazz
TTITLE0=chamambop
TTITLE1=moodswing
TTITLE2=fatiyah
TTITLE3=little things you do
TTITLE4=high fly
TTITLE5=let's see
TTITLE6=wahkeena
TTITLE7=i'll remember april
TTITLE8=kan's klang
TTITLE9=e'
EXTD=YEAR: 2000
EXTT0=
EXTT1=
EXTT2=
EXTT3=
EXTT4=
EXTT5=
EXTT6=
EXTT7=
EXTT8=
EXTT9=
PLAYORDER=
